<svg xmlns="http://www.w3.org/2000/svg" viewBox="0 0 321.75 79.26"><defs><style>.cls-1,.cls-2,.cls-3{fill:#1eeb92;}.cls-2{font-size:52.21px;font-family:Pretendo;letter-spacing:0.02em;}.cls-3{stroke:#1eeb92;stroke-miterlimit:10;stroke-width:0.5px;}</style></defs><g id="Layer_2" data-name="Layer 2"><g id="svg2"><path class="cls-1" d="M279.71,0H42.05C16.9-.07,0,18,0,39.7S16.86,79.25,42.08,79.26H279.67c25.23,0,42.08-17.88,42.08-39.56S304.86-.07,279.71,0Zm-2.83,69H44C24.33,69,12.38,55.84,12.38,39.65s12-29.3,31.61-29.33H276.88c19.59,0,31.61,13.13,31.61,29.33S296.55,69,276.88,69Z"/><text class="cls-2" transform="translate(33.99 54.34) rotate(-1) scale(1.09 0.9)">d<tspan x="37.89" y="0.81">u</tspan><tspan x="76.46" y="1.79">m</tspan><tspan x="130.96" y="2.94">m</tspan><tspan x="185.47" y="3.93">y</tspan></text><path id="path476" class="cls-3" d="M285.9,29.23a4.85,4.85,0,0,0,4.86-5,4.88,4.88,0,1,0-9.75,0,4.85,4.85,0,0,0,4.89,5m-6.1-5a6.09,6.09,0,1,1,6.1,6,6,6,0,0,1-6.1-6"/><path class="cls-1" d="M288.8,24.52a.6.6,0,0,0-.84.07,2.69,2.69,0,0,1-4.15,0,.6.6,0,0,0-.92.76,3.9,3.9,0,0,0,6,0A.59.59,0,0,0,288.8,24.52Z"/><path class="cls-1" d="M287.86,22.18a1.49,1.49,0,0,0-1.48,1,.3.3,0,0,0,.49.27l.24-.21a1.28,1.28,0,0,1,1.51,0l.23.21a.3.3,0,0,0,.49-.27,1.48,1.48,0,0,0-1.48-1Z"/><path class="cls-1" d="M284,22.18a1.49,1.49,0,0,0-1.48,1,.3.3,0,0,0,.49.27l.23-.21a1.28,1.28,0,0,1,1.51,0l.24.21a.3.3,0,0,0,.49-.27,1.49,1.49,0,0,0-1.48-1Z"/></g></g></svg>